HIERARCHY
ROOT hip
{
  OFFSET 0 0 0
  CHANNELS 6 Xposition Yposition Zposition Zrotation Yrotation Xrotation
  JOINT abdomen
  {
    OFFSET 0 20.6881 -0.73152
    CHANNELS 3 Zrotation Xrotation Yrotation
    JOINT chest
    {
      OFFSET 0 11.7043 -0.48768
      CHANNELS 3 Zrotation Xrotation Yrotation
      JOINT neck
      {
        OFFSET 0 22.1894 -2.19456
        CHANNELS 3 Zrotation Xrotation Yrotation
        JOINT head
        {
          OFFSET -0.24384 7.07133 1.2192
          CHANNELS 3 Zrotation Xrotation Yrotation
          JOINT leftEye
          {
            OFFSET 4.14528 8.04674 8.04672
            CHANNELS 3 Zrotation Xrotation Yrotation
            End Site
            {
              OFFSET 1 0 0
            }
          }
          JOINT rightEye
          {
            OFFSET -3.6576 8.04674 8.04672
            CHANNELS 3 Zrotation Xrotation Yrotation
            End Site
            {
              OFFSET 1 0 0
            }
          }
        }
      }
      JOINT rCollar
      {
        OFFSET -2.68224 19.2634 -4.8768
        CHANNELS 3 Zrotation Xrotation Yrotation
        JOINT rShldr
        {
          OFFSET -8.77824 -1.95073 1.46304
          CHANNELS 3 Zrotation Xrotation Yrotation
          JOINT rForeArm
          {
            OFFSET -28.1742 -1.7115 0.48768
            CHANNELS 3 Zrotation Xrotation Yrotation
            JOINT rHand
            {
              OFFSET -22.5879 0.773209 7.07136
              CHANNELS 3 Zrotation Xrotation Yrotation
              JOINT rThumb1
              {
                OFFSET -1.2192 -0.487915 3.41376
                CHANNELS 3 Zrotation Xrotation Yrotation
                JOINT rThumb2
                {
                  OFFSET -3.37035 -0.52449 3.41376
                  CHANNELS 3 Zrotation Xrotation Yrotation
                  End Site
                  {
                    OFFSET -1.78271 -1.18214 1.43049
                  }
                }
              }
              JOINT rIndex1
              {
                OFFSET -7.75947 0.938293 5.60832
                CHANNELS 3 Zrotation Xrotation Yrotation
                JOINT rIndex2
                {
                  OFFSET -2.54057 -0.884171 1.56538
                  CHANNELS 3 Zrotation Xrotation Yrotation
                  End Site
                  {
                    OFFSET -1.62519 -0.234802 1.16502
                  }
                }
              }
              JOINT rMid1
              {
                OFFSET -8.24714 1.18213 3.41376
                CHANNELS 3 Zrotation Xrotation Yrotation
                JOINT rMid2
                {
                  OFFSET -3.10165 -0.590103 1.0647
                  CHANNELS 3 Zrotation Xrotation Yrotation
                  End Site
                  {
                    OFFSET -2.48547 -0.328903 0.83742
                  }
                }
              }
              JOINT rRing1
              {
                OFFSET -8.82822 0.546677 1.51678
                CHANNELS 3 Zrotation Xrotation Yrotation
                JOINT rRing2
                {
                  OFFSET -2.60934 -0.819778 -0.0198488
                  CHANNELS 3 Zrotation Xrotation Yrotation
                  End Site
                  {
                    OFFSET -2.33842 -0.294052 0.168128
                  }
                }
              }
              JOINT rPinky1
              {
                OFFSET -8.27202 -0.0477905 -0.4584
                CHANNELS 3 Zrotation Xrotation Yrotation
                JOINT rPinky2
                {
                  OFFSET -1.82734 -0.647385 -0.700984
                  CHANNELS 3 Zrotation Xrotation Yrotation
                  End Site
                  {
                    OFFSET -1.69225 -0.51767 -0.607171
                  }
                }
              }
            }
          }
        }
      }
      JOINT lCollar
      {
        OFFSET 2.68224 19.2634 -4.8768
        CHANNELS 3 Zrotation Xrotation Yrotation
        JOINT lShldr
        {
          OFFSET 8.77824 -1.95073 1.46304
          CHANNELS 3 Zrotation Xrotation Yrotation
          JOINT lForeArm
          {
            OFFSET 28.1742 -1.7115 0.48768
            CHANNELS 3 Zrotation Xrotation Yrotation
            JOINT lHand
            {
              OFFSET 22.5879 0.773209 7.07136
              CHANNELS 3 Zrotation Xrotation Yrotation
              JOINT lThumb1
              {
                OFFSET 1.2192 -0.487915 3.41376
                CHANNELS 3 Zrotation Xrotation Yrotation
                JOINT lThumb2
                {
                  OFFSET 3.37035 -0.52449 3.41376
                  CHANNELS 3 Zrotation Xrotation Yrotation
                  End Site
                  {
                    OFFSET 1.78271 -1.18214 1.43049
                  }
                }
              }
              JOINT lIndex1
              {
                OFFSET 7.75947 0.938293 5.60832
                CHANNELS 3 Zrotation Xrotation Yrotation
                JOINT lIndex2
                {
                  OFFSET 2.54057 -0.884171 1.56538
                  CHANNELS 3 Zrotation Xrotation Yrotation
                  End Site
                  {
                    OFFSET 1.62519 -0.234802 1.16502
                  }
                }
              }
              JOINT lMid1
              {
                OFFSET 8.24714 1.18213 3.41376
                CHANNELS 3 Zrotation Xrotation Yrotation
                JOINT lMid2
                {
                  OFFSET 3.10165 -0.590103 1.0647
                  CHANNELS 3 Zrotation Xrotation Yrotation
                  End Site
                  {
                    OFFSET 2.48547 -0.328903 0.83742
                  }
                }
              }
              JOINT lRing1
              {
                OFFSET 8.82822 0.546677 1.51678
                CHANNELS 3 Zrotation Xrotation Yrotation
                JOINT lRing2
                {
                  OFFSET 2.60934 -0.819778 -0.0198488
                  CHANNELS 3 Zrotation Xrotation Yrotation
                  End Site
                  {
                    OFFSET 2.33842 -0.294052 0.168128
                  }
                }
              }
              JOINT lPinky1
              {
                OFFSET 8.27202 -0.0477905 -0.4584
                CHANNELS 3 Zrotation Xrotation Yrotation
                JOINT lPinky2
                {
                  OFFSET 1.82734 -0.647385 -0.700984
                  CHANNELS 3 Zrotation Xrotation Yrotation
                  End Site
                  {
                    OFFSET 1.69225 -0.51767 -0.607171
                  }
                }
              }
            }
          }
        }
      }
    }
  }
  JOINT rButtock
  {
    OFFSET -8.77824 4.35084 1.2192
    CHANNELS 3 Zrotation Xrotation Yrotation
    JOINT rThigh
    {
      OFFSET 0 -1.70687 -2.19456
      CHANNELS 3 Zrotation Xrotation Yrotation
      JOINT rShin
      {
        OFFSET 0 -36.8199 0.73152
        CHANNELS 3 Zrotation Xrotation Yrotation
        JOINT rFoot
        {
          OFFSET 0.73152 -45.1104 -5.12064
          CHANNELS 3 Zrotation Xrotation Yrotation
          End Site
          {
            OFFSET -1.1221 -3.69964 12.103
          }
        }
      }
    }
  }
  JOINT lButtock
  {
    OFFSET 8.77824 4.35084 1.2192
    CHANNELS 3 Zrotation Xrotation Yrotation
    JOINT lThigh
    {
      OFFSET 0 -1.70687 -2.19456
      CHANNELS 3 Zrotation Xrotation Yrotation
      JOINT lShin
      {
        OFFSET 0 -36.8199 0.73152
        CHANNELS 3 Zrotation Xrotation Yrotation
        JOINT lFoot
        {
          OFFSET -0.73152 -45.1104 -5.12064
          CHANNELS 3 Zrotation Xrotation Yrotation
          End Site
          {
            OFFSET 1.1221 -3.69964 12.103
          }
        }
      }
    }
  }
}
MOTION
Frames:	7
Frame Time:	0.00833333
3.23114 82.9716 56.2669 -3.5301 0.5489 16.0017 -0.843948 19.5503 0.620151 2.24046 0.449494 0.194155 1.18161 3.4144 0.41863 -1.21052 -10.8585 0.449274 -0.0 0.0 0.0 -0.0 0.0 0.0 -1.26238e-13 8.98499e-14 -3.91124e-14 78.5859 15.7152 7.34482 -15.7256 -8.44164 29.0794 -0.811222 24.6863 3.70422 8.29687e-10 2.85637e-10 -1.34269e-09 1.40896e-09 5.05129e-10 -2.34052e-09 8.29694e-10 2.85636e-10 -1.34269e-09 7.73091 5.47488 0.417314 8.29692e-10 2.85636e-10 -1.34268e-09 2.90554 0.965183 0.102902 8.29692e-10 2.85637e-10 -1.34269e-09 10.2786 0.731801 0.0259123 8.29683e-10 2.85639e-10 -1.34269e-09 2.22167 -0.733487 -0.20892 -1.26186e-13 8.98518e-14 -3.94642e-14 -73.6026 28.0346 -5.86602 10.4509 -4.42009 -18.6498 0.723588 -23.4185 3.48985 2.87505e-09 6.36593e-10 4.09645e-09 4.90761e-09 1.11908e-09 7.1247e-09 2.87502e-09 6.36596e-10 4.09645e-09 -7.73091 5.47488 -0.417314 2.87503e-09 6.36594e-10 4.09644e-09 -2.90554 0.965183 -0.102902 2.87502e-09 6.36594e-10 4.09644e-09 -10.2786 0.731801 -0.0259123 2.87505e-09 6.36589e-10 4.09644e-09 -2.22167 -0.733487 0.20892 -2.03217e-16 0.0 -3.88251e-19 -0.415579 -37.6886 -1.24904 -0.207257 30.2241 0.402551 -0.622372 -4.64289 -0.955582 2.03217e-16 0.0 3.88251e-19 6.42049 -37.9279 9.75788 0.171078 33.0522 -0.587687 1.0829 -5.54625 3.52719
3.27816 82.9571 56.49 -3.5299 0.6042 16.1388 -0.79022 19.5392 0.622587 2.23142 0.471051 0.19663 1.18379 3.34782 0.409499 -1.27503 -11.1261 0.419912 -0.0 0.0 0.0 -0.0 0.0 0.0 -1.36703e-13 6.36103e-14 -4.56708e-14 78.7779 14.6069 6.75017 -15.0786 -7.85855 27.7505 -0.88153 25.6537 3.87028 1.40784e-09 4.54533e-11 -1.516e-09 2.40147e-09 8.89124e-11 -2.65167e-09 1.40785e-09 4.54521e-11 -1.516e-09 7.73091 5.47488 0.417314 1.40785e-09 4.5454e-11 -1.51599e-09 2.90554 0.965183 0.102902 1.40784e-09 4.54532e-11 -1.516e-09 10.2786 0.731801 0.0259123 1.40783e-09 4.54565e-11 -1.516e-09 2.22167 -0.733487 -0.20892 -1.36635e-13 6.36126e-14 -4.60186e-14 -74.3395 27.9479 -5.04973 10.2696 -4.30691 -18.3082 0.694677 -22.9793 3.41663 2.63889e-09 3.8979e-10 4.02473e-09 4.50157e-09 6.97146e-10 6.99724e-09 2.63885e-09 3.89794e-10 4.02473e-09 -7.73091 5.47488 -0.417314 2.63886e-09 3.89792e-10 4.02472e-09 -2.90554 0.965183 -0.102902 2.63885e-09 3.89792e-10 4.02472e-09 -10.2786 0.731801 -0.0259123 2.63889e-09 3.89786e-10 4.02472e-09 -2.22167 -0.733487 0.20892 -2.03217e-16 0.0 -3.88251e-19 -0.462033 -37.5631 -1.30145 -0.205295 30.0766 0.401134 -0.637532 -4.89826 -1.02207 2.03217e-16 0.0 3.88251e-19 6.33584 -37.8699 9.79849 0.170183 32.9891 -0.586576 1.1249 -5.69296 3.72228
3.32305 82.9299 56.7077 -3.5332 0.6526 16.2734 -0.725664 19.5117 0.64554 2.22958 0.490746 0.205218 1.16474 3.28035 0.391127 -1.31959 -11.3764 0.379655 -0.0 0.0 0.0 -0.0 0.0 0.0 -1.33145e-13 7.80968e-14 -4.98491e-14 78.9458 13.4198 6.0985 -14.4778 -7.34113 26.5361 -0.96142 26.7041 4.05346 2.30761e-09 -4.51703e-11 -2.35771e-09 3.93361e-09 -7.22752e-11 -4.12682e-09 2.30763e-09 -4.51717e-11 -2.3577e-09 7.73091 5.47488 0.417314 2.30762e-09 -4.51708e-11 -2.3577e-09 2.90554 0.965183 0.102902 2.30762e-09 -4.51721e-11 -2.35771e-09 10.2786 0.731801 0.0259123 2.30761e-09 -4.51685e-11 -2.3577e-09 2.22167 -0.733487 -0.20892 -1.33061e-13 7.80992e-14 -5.01613e-14 -75.0668 27.8774 -4.25472 10.0935 -4.19832 -17.9773 0.66572 -22.5274 3.34181 2.54339e-09 3.42744e-10 5.15785e-09 4.32242e-09 6.27779e-10 8.95298e-09 2.54336e-09 3.42749e-10 5.15785e-09 -7.73091 5.47488 -0.417314 2.54337e-09 3.42747e-10 5.15784e-09 -2.90554 0.965183 -0.102902 2.54336e-09 3.42747e-10 5.15784e-09 -10.2786 0.731801 -0.0259123 2.54339e-09 3.42741e-10 5.15784e-09 -2.22167 -0.733487 0.20892 -2.03217e-16 0.0 -3.88251e-19 -0.495464 -37.4363 -1.36561 -0.203213 29.924 0.399814 -0.655944 -5.16194 -1.10329 2.03217e-16 0.0 3.88251e-19 6.26915 -37.8436 9.83502 0.17014 32.9715 -0.58631 1.1684 -5.8391 3.91857
3.3673 82.8995 56.9227 -3.5436 0.6952 16.4076 -0.651374 19.4728 0.683187 2.23225 0.509146 0.218243 1.13162 3.21188 0.366476 -1.35102 -11.6122 0.331615 -0.0 0.0 0.0 -0.0 0.0 0.0 -1.21236e-13 1.14301e-13 -5.3032e-14 79.0789 12.154 5.40769 -13.9212 -6.88877 25.4046 -1.05398 27.8404 4.25603 3.4842e-09 -9.13073e-11 -3.62111e-09 5.93342e-09 -1.59008e-10 -6.33775e-09 3.48422e-09 -9.13087e-11 -3.6211e-09 7.73091 5.47488 0.417314 3.48421e-09 -9.13102e-11 -3.6211e-09 2.90554 0.965183 0.102902 3.48421e-09 -9.13116e-11 -3.62111e-09 10.2786 0.731801 0.0259123 3.4842e-09 -9.13077e-11 -3.6211e-09 2.22167 -0.733487 -0.20892 -1.21137e-13 1.14303e-13 -5.32867e-14 -75.7848 27.8228 -3.47585 9.92373 -4.09519 -17.6586 0.637142 -22.0688 3.26641 2.49387e-09 3.86853e-10 6.99525e-09 4.2135e-09 7.20927e-10 1.21259e-08 2.49385e-09 3.86857e-10 6.99526e-09 -7.73091 5.47488 -0.417314 2.49386e-09 3.86856e-10 6.99524e-09 -2.90554 0.965183 -0.102902 2.49384e-09 3.86856e-10 6.99525e-09 -10.2786 0.731801 -0.0259123 2.49387e-09 3.86851e-10 6.99524e-09 -2.22167 -0.733487 0.20892 -2.03217e-16 0.0 -3.88251e-19 -0.520346 -37.3096 -1.44058 -0.201143 29.7775 0.398805 -0.677422 -5.43969 -1.1961 2.03217e-16 0.0 3.88251e-19 6.21098 -37.8438 9.86292 0.170936 33.0003 -0.586929 1.21627 -5.98406 4.13272
3.41121 82.8674 57.1277 -3.5444 0.7259 16.5456 -0.582903 19.432 0.734373 2.2352 0.525123 0.234772 1.09263 3.14286 0.339349 -1.36852 -11.8438 0.281495 -0.0 0.0 0.0 -0.0 0.0 0.0 -1.03722e-13 1.45833e-13 -5.42736e-14 79.1798 10.8673 4.69935 -13.4074 -6.48821 24.3662 -1.15511 28.9989 4.46748 4.33506e-09 -1.04266e-10 -4.6016e-09 7.37805e-09 -1.86869e-10 -8.05218e-09 4.33508e-09 -1.04267e-10 -4.6016e-09 7.73091 5.47488 0.417314 4.33507e-09 -1.04271e-10 -4.6016e-09 2.90554 0.965183 0.102902 4.33507e-09 -1.04273e-10 -4.6016e-09 10.2786 0.731801 0.0259123 4.33505e-09 -1.04269e-10 -4.6016e-09 2.22167 -0.733487 -0.20892 -1.03613e-13 1.45835e-13 -5.44678e-14 -76.4758 27.775 -2.72479 9.76118 -3.99767 -17.3541 0.608831 -21.6025 3.19023 2.37585e-09 4.40624e-10 8.371e-09 3.99211e-09 8.26281e-10 1.45001e-08 2.37584e-09 4.40627e-10 8.37101e-09 -7.73091 5.47488 -0.417314 2.37585e-09 4.40627e-10 8.371e-09 -2.90554 0.965183 -0.102902 2.37583e-09 4.40628e-10 8.371e-09 -10.2786 0.731801 -0.0259123 2.37585e-09 4.40624e-10 8.37099e-09 -2.22167 -0.733487 0.20892 -2.03217e-16 0.0 -3.88251e-19 -0.536841 -37.1907 -1.50622 -0.199176 29.6408 0.398051 -0.701254 -5.71338 -1.29746 2.03217e-16 0.0 3.88251e-19 6.16064 -37.8571 9.87749 0.172108 33.051 -0.588026 1.26342 -6.12637 4.33728
3.45593 82.8395 57.3288 -3.5403 0.7449 16.6842 -0.535835 19.3985 0.797956 2.23425 0.537552 0.25387 1.05599 3.07375 0.313551 -1.37125 -12.0813 0.235013 -0.0 0.0 0.0 -0.0 0.0 0.0 -8.33503e-14 1.46305e-13 -5.26282e-14 79.2556 9.61843 3.99351 -12.9336 -6.12525 23.432 -1.25869 30.1163 4.67607 4.25764e-09 -9.53562e-11 -4.59459e-09 7.24468e-09 -1.71441e-10 -8.03783e-09 4.25766e-09 -9.53562e-11 -4.59459e-09 7.73091 5.47488 0.417314 4.25766e-09 -9.53615e-11 -4.59458e-09 2.90554 0.965183 0.102902 4.25765e-09 -9.53625e-11 -4.59459e-09 10.2786 0.731801 0.0259123 4.25763e-09 -9.53586e-11 -4.59458e-09 2.22167 -0.733487 -0.20892 -8.32367e-14 1.46307e-13 -5.27773e-14 -77.1213 27.7246 -2.01344 9.60686 -3.90587 -17.0662 0.580687 -21.1272 3.11308 2.07486e-09 4.22565e-10 8.11916e-09 3.47551e-09 7.93533e-10 1.40596e-08 2.07486e-09 4.22568e-10 8.11917e-09 -7.73091 5.47488 -0.417314 2.07486e-09 4.22569e-10 8.11916e-09 -2.90554 0.965183 -0.102902 2.07485e-09 4.22569e-10 8.11916e-09 -10.2786 0.731801 -0.0259123 2.07486e-09 4.22567e-10 8.11915e-09 -2.22167 -0.733487 0.20892 -2.03217e-16 0.0 -3.88251e-19 -0.545359 -37.0875 -1.54253 -0.197407 29.518 0.397498 -0.726542 -5.96488 -1.40433 2.03217e-16 0.0 3.88251e-19 6.11739 -37.8702 9.87403 0.173189 33.0987 -0.589194 1.30447 -6.26464 4.50475
3.49724 82.8147 57.5206 -3.535 0.7475 16.823 -0.516015 19.3743 0.878182 2.23097 0.544403 0.276472 1.01922 3.00407 0.287724 -1.34893 -12.3297 0.191151 -0.0 0.0 0.0 -0.0 0.0 0.0 -5.43915e-14 9.23105e-14 -4.51346e-14 79.3098 8.40171 3.27663 -12.5113 -5.80921 22.6137 -1.36465 31.2096 4.8842 2.51436e-09 -6.00095e-11 -2.88686e-09 4.27793e-09 -9.98994e-11 -5.04406e-09 2.51438e-09 -6.00074e-11 -2.88686e-09 7.73091 5.47488 0.417314 2.51437e-09 -6.00122e-11 -2.88686e-09 2.90554 0.965183 0.102902 2.51437e-09 -6.0013e-11 -2.88686e-09 10.2786 0.731801 0.0259123 2.51435e-09 -6.00098e-11 -2.88685e-09 2.22167 -0.733487 -0.20892 -5.42837e-14 9.23119e-14 -4.52585e-14 -77.7163 27.6794 -1.34809 9.45975 -3.81936 -16.7924 0.551804 -20.6273 3.03244 1.39846e-09 2.92882e-10 4.99216e-09 2.34704e-09 5.43189e-10 8.64624e-09 1.39846e-09 2.92883e-10 4.99217e-09 -7.73091 5.47488 -0.417314 1.39847e-09 2.92886e-10 4.99216e-09 -2.90554 0.965183 -0.102902 1.39845e-09 2.92886e-10 4.99216e-09 -10.2786 0.731801 -0.0259123 1.39846e-09 2.92884e-10 4.99214e-09 -2.22167 -0.733487 0.20892 -2.03217e-16 0.0 -3.88251e-19 -0.545811 -37.0012 -1.54299 -0.195833 29.4087 0.397173 -0.754658 -6.19374 -1.52423 2.03217e-16 0.0 3.88251e-19 6.07913 -37.884 9.83977 0.174168 33.1426 -0.590446 1.33748 -6.40052 4.62545
